<svg width="65" height="9" viewBox="0 0 65 9" fill="none" xmlns="http://www.w3.org/2000/svg">
<path d="M1 7L6.79311 2.83828C7.4904 2.33736 8.4296 2.33736 9.12689 2.83828L13.7531 6.16172C14.4504 6.66264 15.3896 6.66264 16.0869 6.16172L20.7131 2.83828C21.4104 2.33736 22.3496 2.33736 23.0469 2.83828L27.6731 6.16172C28.3704 6.66264 29.3096 6.66264 30.0069 6.16172L34.6331 2.83828C35.3304 2.33736 36.2696 2.33736 36.9669 2.83828L41.5931 6.16172C42.2904 6.66264 43.2296 6.66264 43.9269 6.16172L48.5531 2.83828C49.2504 2.33736 50.1896 2.33736 50.8869 2.83828L55.5131 6.16172C56.2104 6.66264 57.1496 6.66264 57.8469 6.16172L63.64 2" stroke="#FBC603" stroke-width="3"/>
</svg>
