<svg width="48" height="48" viewBox="0 0 48 48" fill="none" xmlns="http://www.w3.org/2000/svg">
<g clip-path="url(#clip0_23_138)">
<path d="M44.0976 12.349C41.9842 8.72792 39.1175 5.8611 35.4967 3.7479C31.8754 1.63459 27.922 0.578207 23.6338 0.578207C19.346 0.578207 15.3913 1.63491 11.7708 3.7479C8.14971 5.86099 5.28311 8.72792 3.16969 12.349C1.0566 15.97 0 19.9241 0 24.2113C0 29.3612 1.5025 33.9921 4.50825 38.1052C7.51368 42.2187 11.3963 45.065 16.1556 46.6446C16.7096 46.7474 17.1198 46.6751 17.3864 46.4294C17.6532 46.1835 17.7864 45.8754 17.7864 45.5066C17.7864 45.4451 17.7811 44.8914 17.7709 43.8449C17.7603 42.7984 17.7554 41.8855 17.7554 41.1066L17.0475 41.229C16.5963 41.3117 16.0269 41.3467 15.3396 41.3368C14.6526 41.3272 13.9394 41.2552 13.201 41.1213C12.4622 40.9887 11.7751 40.6809 11.1391 40.1988C10.5034 39.7167 10.0521 39.0856 9.78532 38.3066L9.4776 37.5984C9.27249 37.127 8.94957 36.6033 8.50842 36.0292C8.06726 35.4546 7.62114 35.0651 7.16985 34.86L6.9544 34.7057C6.81083 34.6032 6.67761 34.4796 6.55441 34.3362C6.43132 34.1927 6.33917 34.0491 6.27762 33.9053C6.21597 33.7615 6.26706 33.6434 6.43143 33.5508C6.5958 33.4583 6.89285 33.4133 7.32388 33.4133L7.9391 33.5053C8.34943 33.5875 8.85699 33.8331 9.46241 34.2437C10.0675 34.6539 10.5649 35.1872 10.9548 35.8434C11.4269 36.6848 11.9956 37.3258 12.6627 37.767C13.3292 38.2082 14.0013 38.4284 14.6781 38.4284C15.355 38.4284 15.9396 38.3771 16.4322 38.275C16.9242 38.1724 17.3859 38.0181 17.8169 37.8131C18.0015 36.438 18.5042 35.3817 19.3246 34.6432C18.1553 34.5204 17.1041 34.3353 16.1704 34.0892C15.2372 33.8428 14.2729 33.443 13.278 32.8885C12.2827 32.3348 11.4569 31.6473 10.8006 30.8271C10.1442 30.0064 9.60554 28.929 9.18529 27.5958C8.76483 26.2621 8.55455 24.7236 8.55455 22.9799C8.55455 20.4971 9.36508 18.3843 10.9858 16.6404C10.2266 14.7738 10.2983 12.6813 11.2011 10.3631C11.796 10.1783 12.6783 10.317 13.8476 10.7784C15.017 11.24 15.8732 11.6355 16.4171 11.9634C16.961 12.2911 17.3968 12.5689 17.7251 12.7942C19.6334 12.2609 21.6027 11.9943 23.6335 11.9943C25.6644 11.9943 27.6341 12.2609 29.5425 12.7942L30.7119 12.0559C31.5115 11.5634 32.4558 11.112 33.5425 10.7016C34.6298 10.2915 35.4613 10.1786 36.036 10.3634C36.9588 12.6817 37.041 14.7741 36.2816 16.6407C37.9022 18.3847 38.7131 20.498 38.7131 22.9802C38.7131 24.7239 38.502 26.2673 38.0822 27.6112C37.6619 28.9554 37.1185 30.0317 36.452 30.8425C35.7847 31.6531 34.9537 32.3353 33.9589 32.8888C32.9638 33.4429 31.9991 33.8427 31.066 34.0891C30.1323 34.3355 29.0811 34.5207 27.9119 34.6438C28.9783 35.5666 29.5116 37.0233 29.5116 39.0132V45.5057C29.5116 45.8746 29.6399 46.1825 29.8966 46.4286C30.153 46.6742 30.558 46.7465 31.112 46.6436C35.872 45.0643 39.7546 42.2178 42.7599 38.1044C45.7649 33.9913 47.2679 29.3603 47.2679 24.2105C47.2669 19.9238 46.2097 15.97 44.0976 12.349Z" fill="black"/>
</g>
<defs>
<clipPath id="clip0_23_138">
<rect width="47.2683" height="47.2683" fill="white"/>
</clipPath>
</defs>
</svg>
