<svg width="49" height="48" viewBox="0 0 49 48" fill="none" xmlns="http://www.w3.org/2000/svg">
<g clip-path="url(#clip0_23_147)">
<path d="M48.0777 47.2683V47.2664H48.0895V29.9307C48.0895 21.45 46.2638 14.9171 36.3492 14.9171C31.583 14.9171 28.3845 17.5327 27.0787 20.0123H26.9409V15.7089H17.5404V47.2664H27.3289V31.6403C27.3289 27.526 28.1088 23.5475 33.2039 23.5475C38.2242 23.5475 38.299 28.2429 38.299 31.9042V47.2683H48.0777Z" fill="black"/>
<path d="M1.60107 15.7107H11.4014V47.2682H1.60107V15.7107Z" fill="black"/>
<path d="M6.4973 0C3.36381 0 0.821167 2.54264 0.821167 5.67613C0.821167 8.80962 3.36381 11.4054 6.4973 11.4054C9.63079 11.4054 12.1734 8.80962 12.1734 5.67613C12.1715 2.54264 9.62882 0 6.4973 0V0Z" fill="black"/>
</g>
<defs>
<clipPath id="clip0_23_147">
<rect width="47.2683" height="47.2683" fill="white" transform="translate(0.821167)"/>
</clipPath>
</defs>
</svg>
