<svg width="49" height="48" viewBox="0 0 49 48" fill="none" xmlns="http://www.w3.org/2000/svg">
<g clip-path="url(#clip0_23_142)">
<path d="M48.1788 8.97802C46.421 9.74908 44.548 10.2602 42.5952 10.5083C44.6041 9.30889 46.1374 7.42407 46.8582 5.15224C44.9852 6.26895 42.9172 7.05774 40.7134 7.49793C38.9349 5.60424 36.4001 4.4314 33.6349 4.4314C28.27 4.4314 23.9508 8.78599 23.9508 14.1243C23.9508 14.8925 24.0158 15.631 24.1754 16.3341C16.1191 15.9412 8.99044 12.08 4.20158 6.19805C3.36552 7.6486 2.87511 9.30889 2.87511 11.0962C2.87511 14.4523 4.60336 17.4272 7.17948 19.1496C5.62258 19.12 4.09522 18.668 2.80125 17.956C2.80125 17.9856 2.80125 18.024 2.80125 18.0624C2.80125 22.7715 6.16025 26.6829 10.5651 27.584C9.77628 27.7996 8.91658 27.903 8.0244 27.903C7.404 27.903 6.7777 27.8676 6.1898 27.7376C7.44536 31.5752 11.0082 34.3965 15.2446 34.4881C11.9477 37.0672 7.76147 38.6211 3.22962 38.6211C2.43492 38.6211 1.67272 38.5857 0.910522 38.4882C5.20307 41.2563 10.2903 42.8369 15.7764 42.8369C33.6083 42.8369 43.3574 28.0655 43.3574 15.2617C43.3574 14.8334 43.3427 14.4198 43.322 14.0091C45.2452 12.6443 46.8612 10.9396 48.1788 8.97802Z" fill="black"/>
</g>
<defs>
<clipPath id="clip0_23_142">
<rect width="47.2683" height="47.2683" fill="white" transform="translate(0.910522)"/>
</clipPath>
</defs>
</svg>
